<svg xmlns="http://www.w3.org/2000/svg" width="170" height="135" fill="none" viewBox="0 0 170 135">
  <circle cx="85" cy="38" r="38" fill="url(#a)"/>
  <circle cx="85.221" cy="38.221" r="23.392" fill="#fff"/>
  <ellipse cx="76.971" cy="33.782" fill="#000" rx="2.506" ry="5.012"/>
  <ellipse cx="92.009" cy="33.782" fill="#000" rx="2.506" ry="5.012"/>
  <path fill="#fff" d="M5.4 121c-.613 0-1.147-.227-1.6-.68a2.258 2.258 0 0 1-.64-1.6V94.08c0-.613.213-1.147.64-1.6.453-.453.987-.68 1.6-.68h1.08c.613 0 1.147.227 1.6.68.453.453.68.987.68 1.6v10.36c0 .027.013.04.04.04.027 0 .04-.013.04-.04l8.04-10.8c.88-1.227 2.08-1.84 3.6-1.84h2c.453 0 .787.213 1 .64.213.427.173.813-.12 1.16l-9.2 11.92a.442.442 0 0 0 0 .56l9.64 13.08c.293.373.333.773.12 1.2-.213.427-.56.64-1.04.64h-2c-1.52 0-2.707-.613-3.56-1.84l-8.48-12c0-.027-.013-.04-.04-.04-.027 0-.04.013-.04.04v11.56c0 .613-.227 1.147-.68 1.6-.453.453-.987.68-1.6.68H5.4Zm33.386-24.24-3.52 12.56a.265.265 0 0 0 .04.24c.053.08.12.12.2.12h6.64c.08 0 .147-.04.2-.12a.264.264 0 0 0 .04-.24l-3.52-12.56c0-.027-.013-.04-.04-.04-.027 0-.04.013-.04.04ZM28.426 121c-.56 0-1-.227-1.32-.68-.32-.453-.387-.947-.2-1.48l8.28-24.88a3.4 3.4 0 0 1 1.16-1.56c.56-.4 1.173-.6 1.84-.6h1.44c.693 0 1.307.2 1.84.6.56.4.947.92 1.16 1.56l8.28 24.88c.187.533.12 1.027-.2 1.48-.32.453-.76.68-1.32.68h-1.44c-.64 0-1.24-.2-1.8-.6a3.132 3.132 0 0 1-1.08-1.6l-1.28-4.52c-.027-.213-.173-.32-.44-.32h-9.04c-.24 0-.387.107-.44.32l-1.28 4.52c-.16.64-.52 1.173-1.08 1.6-.533.4-1.133.6-1.8.6h-1.28Zm37.842.4c-4.294 0-7.773-1.333-10.44-4-2.64-2.693-3.96-6.36-3.96-11 0-4.693 1.32-8.36 3.96-11 2.64-2.667 6.293-4 10.96-4 1.92 0 3.666.133 5.24.4.64.107 1.173.427 1.6.96a2.65 2.65 0 0 1 .64 1.76v.16c0 .56-.227 1.013-.68 1.36-.453.347-.96.453-1.52.32a21.695 21.695 0 0 0-4.68-.52c-3.227 0-5.68.893-7.36 2.68-1.654 1.76-2.48 4.387-2.48 7.88 0 3.387.813 6 2.44 7.84 1.653 1.813 3.88 2.72 6.68 2.72 1.146 0 2.28-.16 3.4-.48.213-.053.32-.2.32-.44v-7.92c0-.24-.107-.36-.32-.36h-5c-.587 0-1.093-.2-1.52-.6-.4-.427-.6-.933-.6-1.52 0-.613.2-1.12.6-1.52.426-.427.933-.64 1.52-.64h8.4c.613 0 1.147.227 1.6.68.453.453.68.987.68 1.6v11.64c0 .693-.2 1.32-.6 1.88-.4.56-.92.933-1.56 1.12-2.267.667-4.707 1-7.32 1Zm28.203 0c-4.293 0-7.773-1.333-10.44-4-2.64-2.693-3.96-6.36-3.96-11 0-4.693 1.32-8.36 3.96-11 2.64-2.667 6.293-4 10.96-4 1.92 0 3.667.133 5.24.4.64.107 1.173.427 1.6.96a2.65 2.65 0 0 1 .64 1.76v.16c0 .56-.227 1.013-.68 1.36-.453.347-.96.453-1.52.32a21.697 21.697 0 0 0-4.68-.52c-3.227 0-5.68.893-7.36 2.68-1.653 1.76-2.48 4.387-2.48 7.88 0 3.387.813 6 2.44 7.84 1.653 1.813 3.88 2.72 6.68 2.72 1.147 0 2.28-.16 3.4-.48.213-.053.32-.2.32-.44v-7.92c0-.24-.107-.36-.32-.36h-5c-.587 0-1.093-.2-1.52-.6-.4-.427-.6-.933-.6-1.52 0-.613.2-1.12.6-1.52.427-.427.933-.64 1.52-.64h8.4c.613 0 1.147.227 1.6.68.453.453.68.987.68 1.6v11.64c0 .693-.2 1.32-.6 1.88-.4.56-.92.933-1.56 1.12-2.267.667-4.707 1-7.32 1Zm34.723-15c0-6.933-2.533-10.4-7.6-10.4s-7.6 3.467-7.6 10.4 2.533 10.4 7.6 10.4 7.6-3.467 7.6-10.4Zm2.12 11.04c-2.373 2.64-5.613 3.96-9.72 3.96s-7.36-1.32-9.76-3.96c-2.373-2.64-3.56-6.32-3.56-11.04 0-4.72 1.187-8.4 3.56-11.04 2.4-2.64 5.653-3.96 9.76-3.96s7.347 1.32 9.72 3.96c2.4 2.64 3.6 6.32 3.6 11.04 0 4.72-1.2 8.4-3.6 11.04Zm10.415 3.56c-.613 0-1.147-.227-1.6-.68-.453-.453-.68-.987-.68-1.6V94.08c0-.613.227-1.147.68-1.6.453-.453.987-.68 1.6-.68h1c.693 0 1.333.187 1.92.56a3.273 3.273 0 0 1 1.28 1.48l7 15.12c0 .027.013.04.04.04.027 0 .04-.013.04-.04l7-15.12a3.273 3.273 0 0 1 1.28-1.48 3.509 3.509 0 0 1 1.92-.56h1.16c.613 0 1.147.227 1.6.68.453.453.68.987.68 1.6v24.64c0 .613-.227 1.147-.68 1.6-.453.453-.987.68-1.6.68h-.88c-.613 0-1.147-.227-1.6-.68-.453-.453-.68-.987-.68-1.6v-17.4c0-.027-.013-.04-.04-.04-.027 0-.04.013-.04.04l-4.8 10.28c-.293.613-.747 1.12-1.36 1.52a3.444 3.444 0 0 1-1.88.56h-.24c-.667 0-1.307-.187-1.92-.56a3.803 3.803 0 0 1-1.32-1.52l-4.8-10.28c0-.027-.013-.04-.04-.04-.027 0-.04.013-.04.04v17.4c0 .613-.227 1.147-.68 1.6-.453.453-.987.68-1.6.68h-.72Z"/>
  <defs>
    <linearGradient id="a" x1="85" x2="85" y1="0" y2="76" gradientUnits="userSpaceOnUse">
      <stop offset=".305" stop-color="#8CA9FD"/>
      <stop offset=".615" stop-color="#6A90FD"/>
      <stop offset="1" stop-color="#5F88FE"/>
    </linearGradient>
  </defs>
</svg>
